<mxfile modified="2023-05-22T22:45:33.153Z" host="app.diagrams.net" agent="Mozilla/5.0 (X11; Linux x86_64) AppleWebKit/537.36 (KHTML, like Gecko) Chrome/111.0.0.0 Safari/537.36" etag="k11_jco7sWK4Oh715iXC" version="21.3.2" type="device">
  <diagram id="Ht1M8jgEwFfnCIfOTk4-" name="Page-1">
    <mxGraphModel dx="1136" dy="2183" grid="1" gridSize="10" guides="1" tooltips="1" connect="1" arrows="1" fold="1" page="1" pageScale="1" pageWidth="1169" pageHeight="827" math="0" shadow="0">
      <root>
        <mxCell id="0" />
        <mxCell id="1" parent="0" />
        <mxCell id="UEzPUAAOIrF-is8g5C7q-175" value="AWS Cloud" style="points=[[0,0],[0.25,0],[0.5,0],[0.75,0],[1,0],[1,0.25],[1,0.5],[1,0.75],[1,1],[0.75,1],[0.5,1],[0.25,1],[0,1],[0,0.75],[0,0.5],[0,0.25]];outlineConnect=0;html=1;whiteSpace=wrap;fontSize=12;fontStyle=0;shape=mxgraph.aws4.group;grIcon=mxgraph.aws4.group_aws_cloud_alt;verticalAlign=top;align=left;spacingLeft=30;dashed=0;labelBackgroundColor=#ffffff;container=0;pointerEvents=0;collapsible=0;recursiveResize=0;" parent="1" vertex="1">
          <mxGeometry x="40" y="-490" width="1080" height="770" as="geometry" />
        </mxCell>
        <mxCell id="yBIT4Z-B5Y2RuPXfhLnc-30" value="AWS Account&lt;br&gt;972171577695" style="points=[[0,0],[0.25,0],[0.5,0],[0.75,0],[1,0],[1,0.25],[1,0.5],[1,0.75],[1,1],[0.75,1],[0.5,1],[0.25,1],[0,1],[0,0.75],[0,0.5],[0,0.25]];outlineConnect=0;gradientColor=none;html=1;whiteSpace=wrap;fontSize=12;fontStyle=0;container=0;pointerEvents=0;collapsible=0;recursiveResize=0;shape=mxgraph.aws4.group;grIcon=mxgraph.aws4.group_account;strokeColor=#CD2264;fillColor=none;verticalAlign=top;align=left;spacingLeft=30;fontColor=#CD2264;dashed=0;" parent="1" vertex="1">
          <mxGeometry x="210" y="-450" width="890" height="700" as="geometry" />
        </mxCell>
        <mxCell id="citPmGRXfPtcW6j4eSgK-28" style="edgeStyle=orthogonalEdgeStyle;rounded=0;orthogonalLoop=1;jettySize=auto;html=1;" edge="1" parent="1" source="citPmGRXfPtcW6j4eSgK-27" target="citPmGRXfPtcW6j4eSgK-1">
          <mxGeometry relative="1" as="geometry" />
        </mxCell>
        <mxCell id="citPmGRXfPtcW6j4eSgK-1" value="QualysCloudViewRole" style="sketch=0;outlineConnect=0;fontColor=#232F3E;gradientColor=none;fillColor=#BF0816;strokeColor=none;dashed=0;verticalLabelPosition=bottom;verticalAlign=top;align=center;html=1;fontSize=12;fontStyle=0;aspect=fixed;pointerEvents=1;shape=mxgraph.aws4.role;" vertex="1" parent="1">
          <mxGeometry x="400" y="-387" width="78" height="44" as="geometry" />
        </mxCell>
        <mxCell id="citPmGRXfPtcW6j4eSgK-7" style="edgeStyle=orthogonalEdgeStyle;rounded=0;orthogonalLoop=1;jettySize=auto;html=1;fillColor=#f5f5f5;strokeColor=#666666;" edge="1" parent="1" source="citPmGRXfPtcW6j4eSgK-3" target="citPmGRXfPtcW6j4eSgK-1">
          <mxGeometry relative="1" as="geometry" />
        </mxCell>
        <mxCell id="citPmGRXfPtcW6j4eSgK-3" value="Custom Policy 1" style="sketch=0;outlineConnect=0;fontColor=#232F3E;gradientColor=none;fillColor=#3F8624;strokeColor=none;dashed=0;verticalLabelPosition=bottom;verticalAlign=top;align=center;html=1;fontSize=12;fontStyle=0;aspect=fixed;pointerEvents=1;shape=mxgraph.aws4.policy;" vertex="1" parent="1">
          <mxGeometry x="540" y="-188.75" width="78" height="67" as="geometry" />
        </mxCell>
        <mxCell id="citPmGRXfPtcW6j4eSgK-8" style="edgeStyle=orthogonalEdgeStyle;rounded=0;orthogonalLoop=1;jettySize=auto;html=1;fillColor=#f5f5f5;strokeColor=#666666;" edge="1" parent="1" source="citPmGRXfPtcW6j4eSgK-4" target="citPmGRXfPtcW6j4eSgK-1">
          <mxGeometry relative="1" as="geometry" />
        </mxCell>
        <mxCell id="citPmGRXfPtcW6j4eSgK-4" value="Custom Policy 2" style="sketch=0;outlineConnect=0;fontColor=#232F3E;gradientColor=none;fillColor=#3F8624;strokeColor=none;dashed=0;verticalLabelPosition=bottom;verticalAlign=top;align=center;html=1;fontSize=12;fontStyle=0;aspect=fixed;pointerEvents=1;shape=mxgraph.aws4.policy;" vertex="1" parent="1">
          <mxGeometry x="540" y="-47.25" width="78" height="67" as="geometry" />
        </mxCell>
        <mxCell id="citPmGRXfPtcW6j4eSgK-9" style="edgeStyle=orthogonalEdgeStyle;rounded=0;orthogonalLoop=1;jettySize=auto;html=1;fillColor=#f5f5f5;strokeColor=#666666;" edge="1" parent="1" source="citPmGRXfPtcW6j4eSgK-5" target="citPmGRXfPtcW6j4eSgK-1">
          <mxGeometry relative="1" as="geometry" />
        </mxCell>
        <mxCell id="citPmGRXfPtcW6j4eSgK-5" value="Custom&amp;nbsp;Policy 3" style="sketch=0;outlineConnect=0;fontColor=#232F3E;gradientColor=none;fillColor=#3F8624;strokeColor=none;dashed=0;verticalLabelPosition=bottom;verticalAlign=top;align=center;html=1;fontSize=12;fontStyle=0;aspect=fixed;pointerEvents=1;shape=mxgraph.aws4.policy;" vertex="1" parent="1">
          <mxGeometry x="540" y="102.75" width="78" height="67" as="geometry" />
        </mxCell>
        <mxCell id="citPmGRXfPtcW6j4eSgK-10" style="edgeStyle=orthogonalEdgeStyle;rounded=0;orthogonalLoop=1;jettySize=auto;html=1;fillColor=#f5f5f5;strokeColor=#666666;" edge="1" parent="1" source="citPmGRXfPtcW6j4eSgK-6" target="citPmGRXfPtcW6j4eSgK-1">
          <mxGeometry relative="1" as="geometry" />
        </mxCell>
        <mxCell id="citPmGRXfPtcW6j4eSgK-6" value="SecurityAudit (Managed Policy)" style="sketch=0;outlineConnect=0;fontColor=#232F3E;gradientColor=none;fillColor=#3F8624;strokeColor=none;dashed=0;verticalLabelPosition=bottom;verticalAlign=top;align=center;html=1;fontSize=12;fontStyle=0;aspect=fixed;pointerEvents=1;shape=mxgraph.aws4.policy;" vertex="1" parent="1">
          <mxGeometry x="540" y="-314" width="78" height="67" as="geometry" />
        </mxCell>
        <mxCell id="citPmGRXfPtcW6j4eSgK-12" style="edgeStyle=orthogonalEdgeStyle;rounded=0;orthogonalLoop=1;jettySize=auto;html=1;" edge="1" parent="1" source="citPmGRXfPtcW6j4eSgK-11" target="citPmGRXfPtcW6j4eSgK-1">
          <mxGeometry relative="1" as="geometry" />
        </mxCell>
        <mxCell id="citPmGRXfPtcW6j4eSgK-11" value="in-line trust policy" style="sketch=0;outlineConnect=0;fontColor=#232F3E;gradientColor=none;fillColor=#3F8624;strokeColor=none;dashed=0;verticalLabelPosition=bottom;verticalAlign=top;align=center;html=1;fontSize=12;fontStyle=0;aspect=fixed;pointerEvents=1;shape=mxgraph.aws4.policy;" vertex="1" parent="1">
          <mxGeometry x="290" y="-314" width="78" height="67" as="geometry" />
        </mxCell>
        <mxCell id="citPmGRXfPtcW6j4eSgK-13" value="AWS Account&lt;br&gt;80960163170" style="points=[[0,0],[0.25,0],[0.5,0],[0.75,0],[1,0],[1,0.25],[1,0.5],[1,0.75],[1,1],[0.75,1],[0.5,1],[0.25,1],[0,1],[0,0.75],[0,0.5],[0,0.25]];outlineConnect=0;gradientColor=none;html=1;whiteSpace=wrap;fontSize=12;fontStyle=0;container=1;pointerEvents=0;collapsible=0;recursiveResize=0;shape=mxgraph.aws4.group;grIcon=mxgraph.aws4.group_account;strokeColor=#CD2264;fillColor=none;verticalAlign=top;align=left;spacingLeft=30;fontColor=#CD2264;dashed=0;" vertex="1" parent="1">
          <mxGeometry x="60" y="-450" width="130" height="700" as="geometry" />
        </mxCell>
        <mxCell id="citPmGRXfPtcW6j4eSgK-25" value="QualysPrincipal" style="sketch=0;outlineConnect=0;fontColor=#232F3E;gradientColor=none;fillColor=#BF0816;strokeColor=none;dashed=0;verticalLabelPosition=bottom;verticalAlign=top;align=center;html=1;fontSize=12;fontStyle=0;aspect=fixed;pointerEvents=1;shape=mxgraph.aws4.role;" vertex="1" parent="citPmGRXfPtcW6j4eSgK-13">
          <mxGeometry x="26" y="63" width="78" height="44" as="geometry" />
        </mxCell>
        <mxCell id="citPmGRXfPtcW6j4eSgK-22" style="edgeStyle=orthogonalEdgeStyle;rounded=0;orthogonalLoop=1;jettySize=auto;html=1;" edge="1" parent="1" source="citPmGRXfPtcW6j4eSgK-15" target="citPmGRXfPtcW6j4eSgK-3">
          <mxGeometry relative="1" as="geometry" />
        </mxCell>
        <mxCell id="citPmGRXfPtcW6j4eSgK-15" value="JSON Policy Document&lt;br&gt;&lt;br&gt;eks:ListFargateProfiles&lt;br&gt;eks:DescribeFargateProfile" style="sketch=0;outlineConnect=0;fontColor=#232F3E;gradientColor=none;fillColor=#B0084D;strokeColor=none;dashed=0;verticalLabelPosition=bottom;verticalAlign=top;align=center;html=1;fontSize=12;fontStyle=0;aspect=fixed;pointerEvents=1;shape=mxgraph.aws4.documents;" vertex="1" parent="1">
          <mxGeometry x="790" y="-220" width="32" height="39" as="geometry" />
        </mxCell>
        <mxCell id="citPmGRXfPtcW6j4eSgK-23" style="edgeStyle=orthogonalEdgeStyle;rounded=0;orthogonalLoop=1;jettySize=auto;html=1;" edge="1" parent="1" source="citPmGRXfPtcW6j4eSgK-16" target="citPmGRXfPtcW6j4eSgK-4">
          <mxGeometry relative="1" as="geometry" />
        </mxCell>
        <mxCell id="citPmGRXfPtcW6j4eSgK-16" value="JSON Policy Document&lt;br&gt;&lt;br&gt;&lt;div&gt;&quot;states:DescribeStateMachine&quot;,&lt;/div&gt;&lt;div&gt;...&lt;/div&gt;&lt;div&gt;&quot;rds:ListLogSubscriptions&quot;&lt;/div&gt;&lt;div&gt;&lt;br&gt;&lt;/div&gt;" style="sketch=0;outlineConnect=0;fontColor=#232F3E;gradientColor=none;fillColor=#B0084D;strokeColor=none;dashed=0;verticalLabelPosition=bottom;verticalAlign=top;align=center;html=1;fontSize=12;fontStyle=0;aspect=fixed;pointerEvents=1;shape=mxgraph.aws4.documents;" vertex="1" parent="1">
          <mxGeometry x="790" y="-80" width="32" height="39" as="geometry" />
        </mxCell>
        <mxCell id="citPmGRXfPtcW6j4eSgK-24" style="edgeStyle=orthogonalEdgeStyle;rounded=0;orthogonalLoop=1;jettySize=auto;html=1;" edge="1" parent="1" source="citPmGRXfPtcW6j4eSgK-19" target="citPmGRXfPtcW6j4eSgK-5">
          <mxGeometry relative="1" as="geometry" />
        </mxCell>
        <mxCell id="citPmGRXfPtcW6j4eSgK-19" value="JSON Policy Document&lt;br&gt;&lt;br&gt;&lt;div&gt;&quot;apigateway:GET&quot;,&lt;/div&gt;&lt;div&gt;&quot;arn:aws:apigateway:*::/restapis/*&quot;&lt;/div&gt;" style="sketch=0;outlineConnect=0;fontColor=#232F3E;gradientColor=none;fillColor=#B0084D;strokeColor=none;dashed=0;verticalLabelPosition=bottom;verticalAlign=top;align=center;html=1;fontSize=12;fontStyle=0;aspect=fixed;pointerEvents=1;shape=mxgraph.aws4.documents;" vertex="1" parent="1">
          <mxGeometry x="790" y="70" width="32" height="39" as="geometry" />
        </mxCell>
        <mxCell id="citPmGRXfPtcW6j4eSgK-27" value="" style="sketch=0;outlineConnect=0;fontColor=#232F3E;gradientColor=none;fillColor=#BF0816;strokeColor=none;dashed=0;verticalLabelPosition=bottom;verticalAlign=top;align=center;html=1;fontSize=12;fontStyle=0;aspect=fixed;pointerEvents=1;shape=mxgraph.aws4.sts;" vertex="1" parent="1">
          <mxGeometry x="240" y="-390" width="78" height="50" as="geometry" />
        </mxCell>
        <mxCell id="citPmGRXfPtcW6j4eSgK-29" style="edgeStyle=orthogonalEdgeStyle;rounded=0;orthogonalLoop=1;jettySize=auto;html=1;" edge="1" parent="1" source="citPmGRXfPtcW6j4eSgK-25" target="citPmGRXfPtcW6j4eSgK-27">
          <mxGeometry relative="1" as="geometry" />
        </mxCell>
      </root>
    </mxGraphModel>
  </diagram>
</mxfile>
